<svg xmlns="http://www.w3.org/2000/svg" viewBox="192.4 231.9 370.7 968.2"><defs><clipPath id="clippath"><path d="M192.3 231.9h370.8v549.4H192.3z" class="cls-4"/></clipPath><clipPath id="clippath-1"><path d="M310.1 387.6h122.2v365H310.1z" class="cls-4"/></clipPath><clipPath id="clippath-2"><path d="M453.8 532.6h70v144.8h-70z" class="cls-4"/></clipPath><clipPath id="clippath-3"><path d="M230.1 532.6h70v144.8h-70z" class="cls-4"/></clipPath><clipPath id="clippath-4"><path d="M349 464.6h3.8v3.5H349z" class="cls-4"/></clipPath><clipPath id="clippath-5"><path d="M397.2 462h6.6v5.9h-6.6z" class="cls-4"/></clipPath><clipPath id="clippath-6"><path d="M356.6 455.3h37v9.6h-37z" class="cls-4"/></clipPath><linearGradient id="linear-gradient" x1="-295.9" x2="-295.9" y1="1068.9" y2="1066.2" gradientTransform="matrix(132 0 0 -157 39344.8 168502.2)" gradientUnits="userSpaceOnUse"><stop offset="0" stop-color="#fcdf3e"/><stop offset=".7" stop-color="#feefa0" stop-opacity=".7"/><stop offset="1" stop-color="#fff" stop-opacity=".5"/></linearGradient><style>.cls-12,.cls-14,.cls-15,.cls-16,.cls-17,.cls-18,.cls-19,.cls-4,.cls-7,.cls-8,.cls-9{stroke-width:0}.cls-4{fill:none}.cls-7{fill:#d69174}.cls-8{fill:#ea9d3c}.cls-9{fill:#ebd8cb}.cls-27{mix-blend-mode:multiply;opacity:.5;isolation:isolate}.cls-12{fill:#d6c7ba}.cls-14{fill:#f98638}.cls-15{fill:#cc7552}.cls-29{opacity:.3}.cls-16{fill:#ff6800}.cls-17{fill:#e6c6ac}.cls-18{fill:#fff}.cls-19{fill:#371702}</style></defs><g style="isolation:isolate"><g id="Layer_1" data-name="Layer 1"><path id="Path_39185" d="M333 781.5c-6.9 292.7-40.4 346.5-124 417.6 169.9 2.2 350.4 0 350.4 0s-148.3-48.2-137.6-417.6H333Z" data-name="Path 39185" style="fill:url(#linear-gradient);stroke-width:0"/><g id="Group_6518" data-name="Group 6518"><g id="Group_10826" data-name="Group 10826"><g id="Group_6510" data-name="Group 6510" style="clip-path:url(#clippath)"><g id="Group_6509" data-name="Group 6509"><path id="Path_39155" d="M454.2 354.4c0-1.5 0-3-.2-4.6-2.6-39.6-36.5-117.9-77.9-117.9s-78 84.8-78 122.5v396.1h156v-396" class="cls-16" data-name="Path 39155"/><path id="Path_39156" d="m452 335.5.5 2.8c-7.3-41.5-38.7-106.4-76.4-106.4s-70.7 68.1-76.9 109.4l1-5.8H452Z" data-name="Path 39156" style="fill:#f06200;stroke-width:0"/><path id="Path_39157" d="M454.2 354.4c0-1.5 0-3-.2-4.6-2.6-39.6-36.5-117.9-77.9-117.9H374c28.9 23.8 50 81.7 52 114.5l.2 4.9v399.1h28v-396" data-name="Path 39157" style="fill:#d95900;stroke-width:0"/><path id="Rectangle_3375" d="M298.1 445.6h156v11.5h-156z" class="cls-8" data-name="Rectangle 3375"/><path id="Path_39158" d="M300.2 335.5c-.8 4.1-1.4 7.9-1.7 11.5h155.3c-.3-3.6-.9-7.4-1.7-11.5H300.3Z" class="cls-8" data-name="Path 39158"/><g id="Group_6493" data-name="Group 6493" style="opacity:.2"><g id="Group_6492" data-name="Group 6492" style="clip-path:url(#clippath-1)"><g id="Group_6491" data-name="Group 6491"><path id="Path_39159" d="M371.3 387.6c-30.7 0-61.1 58.2-61.1 93.1v271.9h122.2V480.7c0-34.9-30.5-93.1-61.1-93.1" data-name="Path 39159" style="fill:#000;stroke-width:0"/></g></g></g><path id="Path_39160" d="M522.2 766H452c-.5 0-.8-.4-.8-.9v-.1l2.3-16.3c0-.4.4-.7.8-.7H520c.4 0 .8.3.8.7l2.3 16.3c0 .5-.3.9-.7 1h-.1" class="cls-14" data-name="Path 39160"/><path id="Path_39161" d="M488.7 467.9c-19.3 0-35 37.3-35 64.4v218.2h70V532.3c0-27-15.7-64.4-35-64.4" class="cls-17" data-name="Path 39161"/><path id="Path_39162" d="M488.7 468h.1c19.3 0 35 37.3 35 64.4v218.2h-13.2V528.5c0-21.2-9.1-48.6-22-60.5" data-name="Path 39162" style="fill:#d4b69e;stroke-width:0"/><g id="Group_6496" class="cls-27" data-name="Group 6496"><g id="Group_6495" data-name="Group 6495" style="clip-path:url(#clippath-2)"><g id="Group_6494" data-name="Group 6494"><path id="Rectangle_3377" d="M453.8 636.9h70v5.8h-70z" class="cls-17" data-name="Rectangle 3377"/><path id="Rectangle_3378" d="M453.8 671.6h70v5.8h-70z" class="cls-17" data-name="Rectangle 3378"/><path id="Rectangle_3379" d="M453.8 532.6h70v5.8h-70z" class="cls-17" data-name="Rectangle 3379"/><path id="Rectangle_3380" d="M453.8 602.1h70v5.8h-70z" class="cls-17" data-name="Rectangle 3380"/><path id="Rectangle_3381" d="M453.8 567.4h70v5.8h-70z" class="cls-17" data-name="Rectangle 3381"/></g></g></g><path id="Path_39163" d="M299.4 766h-70.1a.9.9 0 0 1-.9-.9v-.1l2.2-16.2c0-.4.4-.8.9-.8h65.6c.5 0 .8.3.9.8l2.2 16.2c0 .5-.3 1-.8 1h-.1" class="cls-14" data-name="Path 39163"/><path id="Path_39164" d="M265.1 467.9c-19.3 0-35 37.3-35 64.4v218.2h70V532.3c0-27-15.7-64.4-35-64.4" class="cls-17" data-name="Path 39164"/><path id="Path_39165" d="M265.2 467.9h-.1c-19.3 0-35 37.3-35 64.4v218.2h13.2V528.4c0-21.2 9.1-48.6 22-60.5" data-name="Path 39165" style="fill:#f0ddcd;stroke-width:0"/><g id="Group_6499" class="cls-27" data-name="Group 6499"><g id="Group_6498" data-name="Group 6498" style="clip-path:url(#clippath-3)"><g id="Group_6497" data-name="Group 6497"><path id="Rectangle_3383" d="M230.1 636.9h70v5.8h-70z" class="cls-17" data-name="Rectangle 3383"/><path id="Rectangle_3384" d="M230.1 671.6h70v5.8h-70z" class="cls-17" data-name="Rectangle 3384"/><path id="Rectangle_3385" d="M230.1 532.6h70v5.8h-70z" class="cls-17" data-name="Rectangle 3385"/><path id="Rectangle_3386" d="M230.1 602.1h70v5.8h-70z" class="cls-17" data-name="Rectangle 3386"/><path id="Rectangle_3387" d="M230.1 567.4h70v5.8h-70z" class="cls-17" data-name="Rectangle 3387"/></g></g></g><path id="Path_39166" d="M436.2 552.1a111.5 111.5 0 0 1 44.8 44.1c11.7 22.1 7 34.4 21.7 54.3 13.5 18.2 24.1 17 38 32.6 10.5 11.8 21.6 31.7 22.4 67.2h-127V552.1Z" class="cls-7" data-name="Path 39166"/><path id="Path_39167" d="M481 609.4c11 25.5 7 32.7 21.7 52.7 13.5 18.2 24.1 15.4 38 30.9 9.1 10.2 13.7 29.9 16.6 57.3h5.8c-.8-35.5-11.9-55.5-22.4-67.2-13.9-15.6-24.5-14.4-38-32.6-14.8-19.9-10-32.2-21.7-54.3a111.5 111.5 0 0 0-44.8-44.1v9.9a106.2 106.2 0 0 1 44.8 47.4" class="cls-15" data-name="Path 39167"/><path id="Path_39168" d="M319.3 552.1a111.5 111.5 0 0 0-44.8 44.1c-11.7 22.1-7 34.4-21.7 54.3-13.5 18.2-24.1 17-38 32.6-10.5 11.8-21.6 31.7-22.4 67.2h127V552.1Z" class="cls-7" data-name="Path 39168"/><path id="Path_39169" d="M274.5 609.4c-11 25.5-7 32.7-21.7 52.7-13.5 18.2-24.1 15.4-38 30.9-9.1 10.2-13.7 29.9-16.6 57.3h-5.8c.8-35.5 11.9-55.5 22.4-67.2 13.9-15.6 24.5-14.4 38-32.6 14.7-19.9 10-32.2 21.7-54.3a111.5 111.5 0 0 1 44.8-44.1v9.9a106.2 106.2 0 0 0-44.8 47.4" class="cls-15" data-name="Path 39169"/><path id="Path_39170" d="M378.2 385.3c-30.7 0-61.1 60.2-61.1 96.4v265.1c0 8.9 7.2 16.2 16.2 16.2h89.9c8.9 0 16.2-7.2 16.2-16.2V481.7c0-36.1-30.5-96.4-61.1-96.4" data-name="Path 39170" style="fill:#ffedde;stroke-width:0"/><path id="Path_39171" d="M316.7 653.1v97.1h22.4a691.7 691.7 0 0 0 99.8-68V573.7a632 632 0 0 1-122.2 79.4" data-name="Path 39171" style="stroke-width:0;fill:#f5e1d4"/><path id="Path_39172" d="M429.4 760.6V481.1c0-32-24.2-85.1-51.3-95.7 1.7 0 3.3.2 4.9.5 28.9 5.9 56.2 61.2 56.2 95.2v265a19 19 0 0 1-2.2 9c-1.8 3-4.5 5.4-7.7 6.7v-1.2Z" class="cls-9" data-name="Path 39172"/><path id="Path_39173" d="M326 760.6V481.1c0-32 24.2-85.1 51.3-95.7-1.7 0-3.3.2-4.9.5-28.9 5.9-56.2 61.2-56.2 95.2v265c0 3.1.7 6.2 2.2 9 1.8 3 4.5 5.4 7.7 6.7v-1.2Z" class="cls-9" data-name="Path 39173"/><path id="Rectangle_3389" d="M317 614.3h122.2v4.9H317z" class="cls-12" data-name="Rectangle 3389"/><path id="Rectangle_3390" d="M317 680.1h122.2v4.9H317z" class="cls-12" data-name="Rectangle 3390"/><path id="Rectangle_3391" d="M317 548.5h122.2v4.9H317z" class="cls-12" data-name="Rectangle 3391"/><path id="Path_39174" d="M349 468.1c1.2-.7 2.5-1.3 3.8-1.8l-.4-1.8a37.3 37.3 0 0 0-3.4 3.5" class="cls-19" data-name="Path 39174"/><path id="Path_39175" d="M377.7 455.3a36.8 36.8 0 0 0-21.1 6l.8 3.5a71 71 0 0 1 17.1-2.8c5.4-.2 12.3 1.1 18 2.5l1.2-5.3a35.3 35.3 0 0 0-16-3.9" class="cls-19" data-name="Path 39175"/><path id="Path_39176" d="m352.8 466.3-.4-1.8-1.5-6.6c-4.1 3-7.6 6.8-10.4 11-.4.6-.6 1.3-.5 2l2 16.4a3.1 3.1 0 0 0 3.5 2.7c.7 0 1.4-.4 1.9-1 2.6-2.8 5.5-5.3 8.8-7.4l-3.4-15.3Z" class="cls-19" data-name="Path 39176"/><g id="Group_6502" class="cls-29" data-name="Group 6502"><g id="Group_6501" data-name="Group 6501" style="clip-path:url(#clippath-4)"><g id="Group_6500" data-name="Group 6500"><path id="Path_39177" d="M349 468.1c1.2-.7 2.5-1.3 3.8-1.8l-.4-1.8a37.3 37.3 0 0 0-3.4 3.5" class="cls-18" data-name="Path 39177"/></g></g></g><path id="Path_39178" d="M411.7 469c-3.3-5-7.5-9.2-12.5-12.5l-1.2 5.4-.9 3.8-3.3 14.6a44 44 0 0 1 10.9 8.7 3 3 0 0 0 4.4.2 3 3 0 0 0 1-1.9l2-16.4c0-.7 0-1.4-.5-2" class="cls-19" data-name="Path 39178"/><g id="Group_6505" class="cls-29" data-name="Group 6505"><g id="Group_6504" data-name="Group 6504" style="clip-path:url(#clippath-5)"><g id="Group_6503" data-name="Group 6503"><path id="Path_39179" d="M403.7 467.9a24.6 24.6 0 0 0-5.7-5.9l-.9 3.8c3.9 1.1 6.6 2.1 6.6 2.1" class="cls-18" data-name="Path 39179"/></g></g></g><path id="Path_39180" d="M376.1 449.5c-7.3 0-14.5 2-20.9 5.6l1.4 6.2.8 3.5 3.2 14.4a38.4 38.4 0 0 1 15.6-3.7c4.6 0 9.1 1 13.3 2.7l3-13.8 1.2-5.3 1.2-5.2a43.3 43.3 0 0 0-18.7-4.5" class="cls-19" data-name="Path 39180"/><g id="Group_6508" class="cls-29" data-name="Group 6508"><g id="Group_6507" data-name="Group 6507" style="clip-path:url(#clippath-6)"><g id="Group_6506" data-name="Group 6506"><path id="Path_39181" d="M377.7 455.3a36.8 36.8 0 0 0-21.1 6l.8 3.5a71 71 0 0 1 17.1-2.8c5.4-.2 12.3 1.1 18 2.5l1.2-5.3a35.3 35.3 0 0 0-16-3.9" class="cls-18" data-name="Path 39181"/></g></g></g><path id="Path_39182" d="M422.3 781.3h-89.6c-.7 0-1.2-.5-1.1-1l2.9-16.3a1 1 0 0 1 1.1-.7h83.8c.5 0 .9.3 1.1.7l2.9 16.3c0 .5-.4 1-1.1 1" class="cls-16" data-name="Path 39182"/></g></g></g></g></g></g></svg>
